<?xml version='1.0' encoding='UTF-8'?>
<svg width="53mm" height="53mm" version="1.1" viewBox="0 0 53 53" xmlns="http://www.w3.org/2000/svg"><path d="M4,4H5V5H4zM5,4H6V5H5zM6,4H7V5H6zM7,4H8V5H7zM8,4H9V5H8zM9,4H10V5H9zM10,4H11V5H10zM13,4H14V5H13zM14,4H15V5H14zM17,4H18V5H17zM18,4H19V5H18zM23,4H24V5H23zM26,4H27V5H26zM32,4H33V5H32zM33,4H34V5H33zM34,4H35V5H34zM35,4H36V5H35zM36,4H37V5H36zM37,4H38V5H37zM40,4H41V5H40zM42,4H43V5H42zM43,4H44V5H43zM44,4H45V5H44zM45,4H46V5H45zM46,4H47V5H46zM47,4H48V5H47zM48,4H49V5H48zM4,5H5V6H4zM10,5H11V6H10zM12,5H13V6H12zM13,5H14V6H13zM14,5H15V6H14zM15,5H16V6H15zM21,5H22V6H21zM24,5H25V6H24zM25,5H26V6H25zM28,5H29V6H28zM34,5H35V6H34zM35,5H36V6H35zM39,5H40V6H39zM42,5H43V6H42zM48,5H49V6H48zM4,6H5V7H4zM6,6H7V7H6zM7,6H8V7H7zM8,6H9V7H8zM10,6H11V7H10zM12,6H13V7H12zM15,6H16V7H15zM17,6H18V7H17zM18,6H19V7H18zM23,6H24V7H23zM26,6H27V7H26zM27,6H28V7H27zM30,6H31V7H30zM31,6H32V7H31zM34,6H35V7H34zM35,6H36V7H35zM36,6H37V7H36zM37,6H38V7H37zM39,6H40V7H39zM42,6H43V7H42zM44,6H45V7H44zM45,6H46V7H45zM46,6H47V7H46zM48,6H49V7H48zM4,7H5V8H4zM6,7H7V8H6zM7,7H8V8H7zM8,7H9V8H8zM10,7H11V8H10zM12,7H13V8H12zM13,7H14V8H13zM15,7H16V8H15zM17,7H18V8H17zM19,7H20V8H19zM20,7H21V8H20zM21,7H22V8H21zM22,7H23V8H22zM24,7H25V8H24zM25,7H26V8H25zM27,7H28V8H27zM28,7H29V8H28zM29,7H30V8H29zM31,7H32V8H31zM33,7H34V8H33zM34,7H35V8H34zM35,7H36V8H35zM36,7H37V8H36zM39,7H40V8H39zM40,7H41V8H40zM42,7H43V8H42zM44,7H45V8H44zM45,7H46V8H45zM46,7H47V8H46zM48,7H49V8H48zM4,8H5V9H4zM6,8H7V9H6zM7,8H8V9H7zM8,8H9V9H8zM10,8H11V9H10zM12,8H13V9H12zM13,8H14V9H13zM17,8H18V9H17zM18,8H19V9H18zM19,8H20V9H19zM24,8H25V9H24zM25,8H26V9H25zM26,8H27V9H26zM27,8H28V9H27zM28,8H29V9H28zM29,8H30V9H29zM31,8H32V9H31zM34,8H35V9H34zM35,8H36V9H35zM38,8H39V9H38zM39,8H40V9H39zM40,8H41V9H40zM42,8H43V9H42zM44,8H45V9H44zM45,8H46V9H45zM46,8H47V9H46zM48,8H49V9H48zM4,9H5V10H4zM10,9H11V10H10zM12,9H13V10H12zM14,9H15V10H14zM15,9H16V10H15zM16,9H17V10H16zM18,9H19V10H18zM24,9H25V10H24zM28,9H29V10H28zM29,9H30V10H29zM31,9H32V10H31zM32,9H33V10H32zM34,9H35V10H34zM35,9H36V10H35zM36,9H37V10H36zM37,9H38V10H37zM42,9H43V10H42zM48,9H49V10H48zM4,10H5V11H4zM5,10H6V11H5zM6,10H7V11H6zM7,10H8V11H7zM8,10H9V11H8zM9,10H10V11H9zM10,10H11V11H10zM12,10H13V11H12zM14,10H15V11H14zM16,10H17V11H16zM18,10H19V11H18zM20,10H21V11H20zM22,10H23V11H22zM24,10H25V11H24zM26,10H27V11H26zM28,10H29V11H28zM30,10H31V11H30zM32,10H33V11H32zM34,10H35V11H34zM36,10H37V11H36zM38,10H39V11H38zM40,10H41V11H40zM42,10H43V11H42zM43,10H44V11H43zM44,10H45V11H44zM45,10H46V11H45zM46,10H47V11H46zM47,10H48V11H47zM48,10H49V11H48zM13,11H14V12H13zM14,11H15V12H14zM17,11H18V12H17zM19,11H20V12H19zM20,11H21V12H20zM21,11H22V12H21zM24,11H25V12H24zM28,11H29V12H28zM29,11H30V12H29zM34,11H35V12H34zM36,11H37V12H36zM37,11H38V12H37zM38,11H39V12H38zM6,12H7V13H6zM9,12H10V13H9zM10,12H11V13H10zM11,12H12V13H11zM12,12H13V13H12zM15,12H16V13H15zM17,12H18V13H17zM18,12H19V13H18zM21,12H22V13H21zM22,12H23V13H22zM23,12H24V13H23zM24,12H25V13H24zM25,12H26V13H25zM26,12H27V13H26zM27,12H28V13H27zM28,12H29V13H28zM29,12H30V13H29zM32,12H33V13H32zM36,12H37V13H36zM39,12H40V13H39zM41,12H42V13H41zM43,12H44V13H43zM44,12H45V13H44zM45,12H46V13H45zM46,12H47V13H46zM47,12H48V13H47zM6,13H7V14H6zM8,13H9V14H8zM9,13H10V14H9zM12,13H13V14H12zM14,13H15V14H14zM15,13H16V14H15zM16,13H17V14H16zM17,13H18V14H17zM18,13H19V14H18zM20,13H21V14H20zM21,13H22V14H21zM22,13H23V14H22zM24,13H25V14H24zM26,13H27V14H26zM27,13H28V14H27zM29,13H30V14H29zM30,13H31V14H30zM31,13H32V14H31zM32,13H33V14H32zM33,13H34V14H33zM35,13H36V14H35zM39,13H40V14H39zM43,13H44V14H43zM45,13H46V14H45zM46,13H47V14H46zM48,13H49V14H48zM7,14H8V15H7zM8,14H9V15H8zM10,14H11V15H10zM11,14H12V15H11zM12,14H13V15H12zM14,14H15V15H14zM15,14H16V15H15zM19,14H20V15H19zM23,14H24V15H23zM24,14H25V15H24zM30,14H31V15H30zM31,14H32V15H31zM32,14H33V15H32zM35,14H36V15H35zM36,14H37V15H36zM37,14H38V15H37zM39,14H40V15H39zM41,14H42V15H41zM44,14H45V15H44zM48,14H49V15H48zM4,15H5V16H4zM5,15H6V16H5zM7,15H8V16H7zM12,15H13V16H12zM15,15H16V16H15zM16,15H17V16H16zM18,15H19V16H18zM24,15H25V16H24zM26,15H27V16H26zM28,15H29V16H28zM31,15H32V16H31zM33,15H34V16H33zM36,15H37V16H36zM37,15H38V16H37zM38,15H39V16H38zM39,15H40V16H39zM40,15H41V16H40zM44,15H45V16H44zM45,15H46V16H45zM47,15H48V16H47zM4,16H5V17H4zM5,16H6V17H5zM6,16H7V17H6zM7,16H8V17H7zM9,16H10V17H9zM10,16H11V17H10zM13,16H14V17H13zM19,16H20V17H19zM20,16H21V17H20zM24,16H25V17H24zM26,16H27V17H26zM28,16H29V17H28zM29,16H30V17H29zM30,16H31V17H30zM36,16H37V17H36zM38,16H39V17H38zM39,16H40V17H39zM41,16H42V17H41zM42,16H43V17H42zM44,16H45V17H44zM45,16H46V17H45zM6,17H7V18H6zM8,17H9V18H8zM11,17H12V18H11zM12,17H13V18H12zM13,17H14V18H13zM16,17H17V18H16zM17,17H18V18H17zM18,17H19V18H18zM19,17H20V18H19zM20,17H21V18H20zM21,17H22V18H21zM22,17H23V18H22zM23,17H24V18H23zM24,17H25V18H24zM26,17H27V18H26zM27,17H28V18H27zM29,17H30V18H29zM31,17H32V18H31zM33,17H34V18H33zM36,17H37V18H36zM37,17H38V18H37zM41,17H42V18H41zM44,17H45V18H44zM46,17H47V18H46zM48,17H49V18H48zM4,18H5V19H4zM6,18H7V19H6zM7,18H8V19H7zM8,18H9V19H8zM10,18H11V19H10zM14,18H15V19H14zM15,18H16V19H15zM16,18H17V19H16zM18,18H19V19H18zM19,18H20V19H19zM22,18H23V19H22zM23,18H24V19H23zM25,18H26V19H25zM30,18H31V19H30zM31,18H32V19H31zM32,18H33V19H32zM33,18H34V19H33zM37,18H38V19H37zM45,18H46V19H45zM46,18H47V19H46zM48,18H49V19H48zM4,19H5V20H4zM5,19H6V20H5zM8,19H9V20H8zM9,19H10V20H9zM11,19H12V20H11zM12,19H13V20H12zM13,19H14V20H13zM14,19H15V20H14zM15,19H16V20H15zM17,19H18V20H17zM18,19H19V20H18zM20,19H21V20H20zM21,19H22V20H21zM23,19H24V20H23zM24,19H25V20H24zM25,19H26V20H25zM27,19H28V20H27zM28,19H29V20H28zM29,19H30V20H29zM30,19H31V20H30zM32,19H33V20H32zM36,19H37V20H36zM37,19H38V20H37zM38,19H39V20H38zM39,19H40V20H39zM40,19H41V20H40zM42,19H43V20H42zM44,19H45V20H44zM45,19H46V20H45zM4,20H5V21H4zM7,20H8V21H7zM8,20H9V21H8zM10,20H11V21H10zM11,20H12V21H11zM12,20H13V21H12zM13,20H14V21H13zM14,20H15V21H14zM15,20H16V21H15zM20,20H21V21H20zM21,20H22V21H21zM23,20H24V21H23zM24,20H25V21H24zM27,20H28V21H27zM29,20H30V21H29zM32,20H33V21H32zM34,20H35V21H34zM36,20H37V21H36zM39,20H40V21H39zM42,20H43V21H42zM43,20H44V21H43zM44,20H45V21H44zM48,20H49V21H48zM6,21H7V22H6zM7,21H8V22H7zM11,21H12V22H11zM12,21H13V22H12zM17,21H18V22H17zM19,21H20V22H19zM20,21H21V22H20zM24,21H25V22H24zM25,21H26V22H25zM29,21H30V22H29zM30,21H31V22H30zM31,21H32V22H31zM36,21H37V22H36zM37,21H38V22H37zM41,21H42V22H41zM44,21H45V22H44zM47,21H48V22H47zM48,21H49V22H48zM6,22H7V23H6zM8,22H9V23H8zM10,22H11V23H10zM11,22H12V23H11zM12,22H13V23H12zM14,22H15V23H14zM17,22H18V23H17zM23,22H24V23H23zM26,22H27V23H26zM29,22H30V23H29zM34,22H35V23H34zM37,22H38V23H37zM39,22H40V23H39zM40,22H41V23H40zM41,22H42V23H41zM43,22H44V23H43zM44,22H45V23H44zM45,22H46V23H45zM46,22H47V23H46zM48,22H49V23H48zM4,23H5V24H4zM5,23H6V24H5zM6,23H7V24H6zM8,23H9V24H8zM9,23H10V24H9zM11,23H12V24H11zM13,23H14V24H13zM15,23H16V24H15zM16,23H17V24H16zM18,23H19V24H18zM22,23H23V24H22zM24,23H25V24H24zM25,23H26V24H25zM29,23H30V24H29zM30,23H31V24H30zM31,23H32V24H31zM32,23H33V24H32zM33,23H34V24H33zM34,23H35V24H34zM36,23H37V24H36zM37,23H38V24H37zM39,23H40V24H39zM40,23H41V24H40zM41,23H42V24H41zM42,23H43V24H42zM44,23H45V24H44zM45,23H46V24H45zM47,23H48V24H47zM48,23H49V24H48zM5,24H6V25H5zM7,24H8V25H7zM8,24H9V25H8zM9,24H10V25H9zM10,24H11V25H10zM11,24H12V25H11zM12,24H13V25H12zM13,24H14V25H13zM14,24H15V25H14zM17,24H18V25H17zM18,24H19V25H18zM24,24H25V25H24zM25,24H26V25H25zM26,24H27V25H26zM27,24H28V25H27zM28,24H29V25H28zM30,24H31V25H30zM33,24H34V25H33zM36,24H37V25H36zM39,24H40V25H39zM40,24H41V25H40zM41,24H42V25H41zM42,24H43V25H42zM43,24H44V25H43zM44,24H45V25H44zM45,24H46V25H45zM47,24H48V25H47zM48,24H49V25H48zM5,25H6V26H5zM6,25H7V26H6zM7,25H8V26H7zM8,25H9V26H8zM12,25H13V26H12zM13,25H14V26H13zM15,25H16V26H15zM16,25H17V26H16zM17,25H18V26H17zM18,25H19V26H18zM19,25H20V26H19zM21,25H22V26H21zM22,25H23V26H22zM24,25H25V26H24zM28,25H29V26H28zM29,25H30V26H29zM30,25H31V26H30zM33,25H34V26H33zM34,25H35V26H34zM39,25H40V26H39zM40,25H41V26H40zM44,25H45V26H44zM46,25H47V26H46zM48,25H49V26H48zM4,26H5V27H4zM5,26H6V27H5zM6,26H7V27H6zM8,26H9V27H8zM10,26H11V27H10zM12,26H13V27H12zM14,26H15V27H14zM15,26H16V27H15zM19,26H20V27H19zM20,26H21V27H20zM23,26H24V27H23zM24,26H25V27H24zM26,26H27V27H26zM28,26H29V27H28zM30,26H31V27H30zM32,26H33V27H32zM33,26H34V27H33zM34,26H35V27H34zM35,26H36V27H35zM37,26H38V27H37zM39,26H40V27H39zM40,26H41V27H40zM42,26H43V27H42zM44,26H45V27H44zM45,26H46V27H45zM46,26H47V27H46zM48,26H49V27H48zM4,27H5V28H4zM8,27H9V28H8zM12,27H13V28H12zM13,27H14V28H13zM14,27H15V28H14zM15,27H16V28H15zM20,27H21V28H20zM24,27H25V28H24zM28,27H29V28H28zM31,27H32V28H31zM32,27H33V28H32zM34,27H35V28H34zM40,27H41V28H40zM44,27H45V28H44zM45,27H46V28H45zM47,27H48V28H47zM7,28H8V29H7zM8,28H9V29H8zM9,28H10V29H9zM10,28H11V29H10zM11,28H12V29H11zM12,28H13V29H12zM14,28H15V29H14zM15,28H16V29H15zM16,28H17V29H16zM17,28H18V29H17zM18,28H19V29H18zM20,28H21V29H20zM24,28H25V29H24zM25,28H26V29H25zM26,28H27V29H26zM27,28H28V29H27zM28,28H29V29H28zM30,28H31V29H30zM32,28H33V29H32zM33,28H34V29H33zM35,28H36V29H35zM36,28H37V29H36zM37,28H38V29H37zM39,28H40V29H39zM40,28H41V29H40zM41,28H42V29H41zM42,28H43V29H42zM43,28H44V29H43zM44,28H45V29H44zM4,29H5V30H4zM5,29H6V30H5zM8,29H9V30H8zM9,29H10V30H9zM12,29H13V30H12zM14,29H15V30H14zM15,29H16V30H15zM17,29H18V30H17zM21,29H22V30H21zM23,29H24V30H23zM24,29H25V30H24zM26,29H27V30H26zM27,29H28V30H27zM29,29H30V30H29zM31,29H32V30H31zM32,29H33V30H32zM33,29H34V30H33zM35,29H36V30H35zM36,29H37V30H36zM39,29H40V30H39zM42,29H43V30H42zM43,29H44V30H43zM45,29H46V30H45zM46,29H47V30H46zM48,29H49V30H48zM4,30H5V31H4zM5,30H6V31H5zM6,30H7V31H6zM7,30H8V31H7zM9,30H10V31H9zM10,30H11V31H10zM11,30H12V31H11zM12,30H13V31H12zM14,30H15V31H14zM15,30H16V31H15zM19,30H20V31H19zM23,30H24V31H23zM25,30H26V31H25zM27,30H28V31H27zM29,30H30V31H29zM30,30H31V31H30zM33,30H34V31H33zM34,30H35V31H34zM42,30H43V31H42zM43,30H44V31H43zM44,30H45V31H44zM45,30H46V31H45zM46,30H47V31H46zM47,30H48V31H47zM48,30H49V31H48zM4,31H5V32H4zM6,31H7V32H6zM13,31H14V32H13zM14,31H15V32H14zM15,31H16V32H15zM22,31H23V32H22zM26,31H27V32H26zM27,31H28V32H27zM28,31H29V32H28zM31,31H32V32H31zM34,31H35V32H34zM36,31H37V32H36zM37,31H38V32H37zM38,31H39V32H38zM39,31H40V32H39zM42,31H43V32H42zM43,31H44V32H43zM45,31H46V32H45zM47,31H48V32H47zM5,32H6V33H5zM6,32H7V33H6zM8,32H9V33H8zM10,32H11V33H10zM12,32H13V33H12zM15,32H16V33H15zM17,32H18V33H17zM23,32H24V33H23zM25,32H26V33H25zM28,32H29V33H28zM29,32H30V33H29zM30,32H31V33H30zM36,32H37V33H36zM39,32H40V33H39zM40,32H41V33H40zM42,32H43V33H42zM45,32H46V33H45zM48,32H49V33H48zM6,33H7V34H6zM8,33H9V34H8zM9,33H10V34H9zM15,33H16V34H15zM16,33H17V34H16zM18,33H19V34H18zM20,33H21V34H20zM22,33H23V34H22zM24,33H25V34H24zM28,33H29V34H28zM29,33H30V34H29zM30,33H31V34H30zM31,33H32V34H31zM32,33H33V34H32zM33,33H34V34H33zM37,33H38V34H37zM39,33H40V34H39zM43,33H44V34H43zM45,33H46V34H45zM48,33H49V34H48zM8,34H9V35H8zM10,34H11V35H10zM13,34H14V35H13zM16,34H17V35H16zM20,34H21V35H20zM22,34H23V35H22zM23,34H24V35H23zM27,34H28V35H27zM28,34H29V35H28zM29,34H30V35H29zM30,34H31V35H30zM31,34H32V35H31zM32,34H33V35H32zM34,34H35V35H34zM35,34H36V35H35zM36,34H37V35H36zM39,34H40V35H39zM40,34H41V35H40zM42,34H43V35H42zM43,34H44V35H43zM44,34H45V35H44zM46,34H47V35H46zM47,34H48V35H47zM48,34H49V35H48zM4,35H5V36H4zM5,35H6V36H5zM8,35H9V36H8zM11,35H12V36H11zM12,35H13V36H12zM15,35H16V36H15zM16,35H17V36H16zM20,35H21V36H20zM21,35H22V36H21zM23,35H24V36H23zM26,35H27V36H26zM27,35H28V36H27zM33,35H34V36H33zM34,35H35V36H34zM36,35H37V36H36zM39,35H40V36H39zM40,35H41V36H40zM42,35H43V36H42zM43,35H44V36H43zM45,35H46V36H45zM47,35H48V36H47zM48,35H49V36H48zM4,36H5V37H4zM5,36H6V37H5zM8,36H9V37H8zM10,36H11V37H10zM12,36H13V37H12zM15,36H16V37H15zM17,36H18V37H17zM19,36H20V37H19zM24,36H25V37H24zM25,36H26V37H25zM26,36H27V37H26zM28,36H29V37H28zM29,36H30V37H29zM30,36H31V37H30zM33,36H34V37H33zM34,36H35V37H34zM36,36H37V37H36zM38,36H39V37H38zM39,36H40V37H39zM45,36H46V37H45zM47,36H48V37H47zM48,36H49V37H48zM5,37H6V38H5zM6,37H7V38H6zM7,37H8V38H7zM8,37H9V38H8zM11,37H12V38H11zM12,37H13V38H12zM14,37H15V38H14zM16,37H17V38H16zM19,37H20V38H19zM20,37H21V38H20zM21,37H22V38H21zM23,37H24V38H23zM24,37H25V38H24zM25,37H26V38H25zM26,37H27V38H26zM27,37H28V38H27zM28,37H29V38H28zM30,37H31V38H30zM34,37H35V38H34zM35,37H36V38H35zM37,37H38V38H37zM41,37H42V38H41zM43,37H44V38H43zM45,37H46V38H45zM47,37H48V38H47zM48,37H49V38H48zM8,38H9V39H8zM10,38H11V39H10zM11,38H12V39H11zM13,38H14V39H13zM18,38H19V39H18zM26,38H27V39H26zM29,38H30V39H29zM30,38H31V39H30zM32,38H33V39H32zM34,38H35V39H34zM35,38H36V39H35zM37,38H38V39H37zM40,38H41V39H40zM41,38H42V39H41zM42,38H43V39H42zM45,38H46V39H45zM46,38H47V39H46zM48,38H49V39H48zM5,39H6V40H5zM6,39H7V40H6zM7,39H8V40H7zM8,39H9V40H8zM13,39H14V40H13zM14,39H15V40H14zM15,39H16V40H15zM16,39H17V40H16zM18,39H19V40H18zM19,39H20V40H19zM21,39H22V40H21zM22,39H23V40H22zM24,39H25V40H24zM27,39H28V40H27zM28,39H29V40H28zM34,39H35V40H34zM36,39H37V40H36zM37,39H38V40H37zM38,39H39V40H38zM39,39H40V40H39zM40,39H41V40H40zM41,39H42V40H41zM42,39H43V40H42zM43,39H44V40H43zM45,39H46V40H45zM47,39H48V40H47zM4,40H5V41H4zM7,40H8V41H7zM8,40H9V41H8zM10,40H11V41H10zM12,40H13V41H12zM13,40H14V41H13zM14,40H15V41H14zM15,40H16V41H15zM18,40H19V41H18zM24,40H25V41H24zM25,40H26V41H25zM26,40H27V41H26zM27,40H28V41H27zM28,40H29V41H28zM29,40H30V41H29zM30,40H31V41H30zM31,40H32V41H31zM35,40H36V41H35zM36,40H37V41H36zM37,40H38V41H37zM38,40H39V41H38zM39,40H40V41H39zM40,40H41V41H40zM41,40H42V41H41zM42,40H43V41H42zM43,40H44V41H43zM44,40H45V41H44zM47,40H48V41H47zM12,41H13V42H12zM15,41H16V42H15zM16,41H17V42H16zM17,41H18V42H17zM18,41H19V42H18zM19,41H20V42H19zM20,41H21V42H20zM21,41H22V42H21zM22,41H23V42H22zM24,41H25V42H24zM28,41H29V42H28zM30,41H31V42H30zM34,41H35V42H34zM35,41H36V42H35zM37,41H38V42H37zM39,41H40V42H39zM40,41H41V42H40zM44,41H45V42H44zM47,41H48V42H47zM48,41H49V42H48zM4,42H5V43H4zM5,42H6V43H5zM6,42H7V43H6zM7,42H8V43H7zM8,42H9V43H8zM9,42H10V43H9zM10,42H11V43H10zM12,42H13V43H12zM13,42H14V43H13zM14,42H15V43H14zM17,42H18V43H17zM18,42H19V43H18zM19,42H20V43H19zM22,42H23V43H22zM24,42H25V43H24zM26,42H27V43H26zM28,42H29V43H28zM29,42H30V43H29zM30,42H31V43H30zM31,42H32V43H31zM32,42H33V43H32zM35,42H36V43H35zM37,42H38V43H37zM39,42H40V43H39zM40,42H41V43H40zM42,42H43V43H42zM44,42H45V43H44zM46,42H47V43H46zM48,42H49V43H48zM4,43H5V44H4zM10,43H11V44H10zM12,43H13V44H12zM13,43H14V44H13zM14,43H15V44H14zM16,43H17V44H16zM17,43H18V44H17zM18,43H19V44H18zM21,43H22V44H21zM22,43H23V44H22zM24,43H25V44H24zM28,43H29V44H28zM30,43H31V44H30zM31,43H32V44H31zM33,43H34V44H33zM34,43H35V44H34zM36,43H37V44H36zM37,43H38V44H37zM38,43H39V44H38zM40,43H41V44H40zM44,43H45V44H44zM45,43H46V44H45zM47,43H48V44H47zM4,44H5V45H4zM6,44H7V45H6zM7,44H8V45H7zM8,44H9V45H8zM10,44H11V45H10zM13,44H14V45H13zM15,44H16V45H15zM16,44H17V45H16zM18,44H19V45H18zM21,44H22V45H21zM23,44H24V45H23zM24,44H25V45H24zM25,44H26V45H25zM26,44H27V45H26zM27,44H28V45H27zM28,44H29V45H28zM29,44H30V45H29zM30,44H31V45H30zM36,44H37V45H36zM38,44H39V45H38zM40,44H41V45H40zM41,44H42V45H41zM42,44H43V45H42zM43,44H44V45H43zM44,44H45V45H44zM4,45H5V46H4zM6,45H7V46H6zM7,45H8V46H7zM8,45H9V46H8zM10,45H11V46H10zM13,45H14V46H13zM14,45H15V46H14zM26,45H27V46H26zM28,45H29V46H28zM29,45H30V46H29zM32,45H33V46H32zM37,45H38V46H37zM40,45H41V46H40zM44,45H45V46H44zM45,45H46V46H45zM47,45H48V46H47zM48,45H49V46H48zM4,46H5V47H4zM6,46H7V47H6zM7,46H8V47H7zM8,46H9V47H8zM10,46H11V47H10zM12,46H13V47H12zM17,46H18V47H17zM21,46H22V47H21zM23,46H24V47H23zM26,46H27V47H26zM29,46H30V47H29zM30,46H31V47H30zM32,46H33V47H32zM33,46H34V47H33zM34,46H35V47H34zM36,46H37V47H36zM40,46H41V47H40zM44,46H45V47H44zM46,46H47V47H46zM47,46H48V47H47zM48,46H49V47H48zM4,47H5V48H4zM10,47H11V48H10zM13,47H14V48H13zM14,47H15V48H14zM17,47H18V48H17zM19,47H20V48H19zM20,47H21V48H20zM21,47H22V48H21zM22,47H23V48H22zM23,47H24V48H23zM24,47H25V48H24zM34,47H35V48H34zM36,47H37V48H36zM37,47H38V48H37zM39,47H40V48H39zM43,47H44V48H43zM45,47H46V48H45zM4,48H5V49H4zM5,48H6V49H5zM6,48H7V49H6zM7,48H8V49H7zM8,48H9V49H8zM9,48H10V49H9zM10,48H11V49H10zM14,48H15V49H14zM16,48H17V49H16zM18,48H19V49H18zM19,48H20V49H19zM20,48H21V49H20zM22,48H23V49H22zM23,48H24V49H23zM26,48H27V49H26zM28,48H29V49H28zM30,48H31V49H30zM34,48H35V49H34zM35,48H36V49H35zM36,48H37V49H36zM37,48H38V49H37zM39,48H40V49H39zM40,48H41V49H40zM43,48H44V49H43zM44,48H45V49H44zM45,48H46V49H45zM48,48H49V49H48z" id="qr-path" fill="#1B3A6B" fill-opacity="1" fill-rule="nonzero" stroke="none" /></svg>